<?xml version="1.0" encoding="iso-8859-1"?>
<!-- Generator: Adobe Illustrator 19.0.0, SVG Export Plug-In . SVG Version: 6.00 Build 0)  -->
<svg version="1.1" id="Layer_1" xmlns="http://www.w3.org/2000/svg" xmlns:xlink="http://www.w3.org/1999/xlink" x="0px" y="0px"
	 viewBox="0 0 512 512" style="enable-background:new 0 0 512 512;" xml:space="preserve">
<g>
	<g>
		<path d="M317.042,257.501L499.059,75.483c17.238-17.239,17.238-45.291,0-62.53C490.709,4.6,479.605,0,467.794,0
			s-22.915,4.6-31.266,12.952L254.512,194.969l20.511,20.511l-29.97,29.97c-5.955-4.764-12.254-8.986-18.837-12.64l9.956-24.035
			l-28.102-11.64l-9.956,24.035c-7.239-2.071-14.678-3.541-22.257-4.382v-26.059h-30.417v26.06
			c-7.58,0.843-15.019,2.311-22.257,4.382l-9.956-24.036l-28.102,11.64l9.956,24.036c-6.583,3.654-12.883,7.876-18.837,12.639
			l-18.427-18.427l-21.508,21.508l18.428,18.428c-4.764,5.955-8.986,12.253-12.639,18.837l-24.035-9.956l-11.64,28.102l24.034,9.956
			c-2.071,7.239-3.541,14.678-4.382,22.258H0.012v30.417h26.059c0.842,7.58,2.31,15.018,4.381,22.257l-24.034,9.955l11.64,28.102
			l24.033-9.954c3.654,6.584,7.876,12.883,12.64,18.837l-18.427,18.427l21.508,21.508l18.426-18.427
			c5.955,4.764,12.254,8.986,18.837,12.64l-9.955,24.034l28.102,11.64l9.955-24.034c7.239,2.071,14.678,3.541,22.258,4.382V512
			h30.417v-26.059c7.58-0.842,15.019-2.31,22.258-4.382l9.955,24.034l28.102-11.64l-9.955-24.034
			c6.584-3.654,12.883-7.876,18.837-12.64l18.427,18.427l21.508-21.508l-18.427-18.427c4.764-5.955,8.986-12.253,12.64-18.837
			l24.034,9.956l11.64-28.102l-24.034-9.956c2.071-7.238,3.541-14.677,4.382-22.257h26.059v-30.417h-26.059
			c-0.842-7.58-2.311-15.019-4.382-22.258l24.034-9.956l-11.64-28.102l-24.034,9.956c-3.654-6.584-7.876-12.883-12.64-18.837
			l29.972-29.97L317.042,257.501z M458.036,34.46c2.607-2.607,6.072-4.042,9.758-4.042s7.15,1.436,9.757,4.042
			c5.381,5.381,5.381,14.135,0,19.516L317.042,214.483l-19.515-19.515L458.036,34.46z M234.9,425.616
			c-19.833,19.833-46.203,30.756-74.25,30.755c-28.05,0-54.419-10.922-74.253-30.756c-19.833-19.833-30.756-46.202-30.755-74.25
			c0-28.049,10.922-54.418,30.756-74.251c19.834-19.833,46.204-30.757,74.252-30.757c22.912,0,44.702,7.292,62.726,20.773
			l-45.573,45.573c-5.331-2.366-11.142-3.623-17.149-3.623c-0.001,0-0.003,0-0.004,0c-23.317,0-42.286,18.969-42.286,42.285
			s18.969,42.285,42.286,42.285c23.317,0,42.286-18.969,42.286-42.285c0-6.009-1.256-11.822-3.625-17.153l45.573-45.573
			c13.48,18.022,20.772,39.812,20.772,62.725C265.656,379.413,254.733,405.783,234.9,425.616z M172.516,351.364
			c0,6.544-5.324,11.868-11.869,11.868c-6.545,0-11.869-5.324-11.869-11.868s5.324-11.868,11.869-11.868h0.002
			c3.169,0,6.148,1.234,8.39,3.476C171.282,345.214,172.516,348.194,172.516,351.364z"/>
	</g>
</g>
<g>
</g>
<g>
</g>
<g>
</g>
<g>
</g>
<g>
</g>
<g>
</g>
<g>
</g>
<g>
</g>
<g>
</g>
<g>
</g>
<g>
</g>
<g>
</g>
<g>
</g>
<g>
</g>
<g>
</g>
</svg>
